<svg xmlns="http://www.w3.org/2000/svg" version="1.1" xmlns:xlink="http://www.w3.org/1999/xlink" xmlns:svgjs="http://svgjs.dev/svgjs" width="2560" height="1440" preserveAspectRatio="none" viewBox="0 0 2560 1440"><g mask="url(&quot;#SvgjsMask6535&quot;)" fill="none"><rect width="2560" height="1440" x="0" y="0" fill="url(&quot;#SvgjsRadialGradient6536&quot;)"></rect><path d="M0 0L393.67 0L0 244.47z" fill="rgba(255, 255, 255, .1)"></path><path d="M0 244.47L393.67 0L811.22 0L0 409.38z" fill="rgba(255, 255, 255, .075)"></path><path d="M0 409.38L811.22 0L1371.24 0L0 671.38z" fill="rgba(255, 255, 255, .05)"></path><path d="M0 671.38L1371.24 0L2159.42 0L0 713.96z" fill="rgba(255, 255, 255, .025)"></path><path d="M2560 1440L1408.24 1440L2560 853.45z" fill="rgba(0, 0, 0, .1)"></path><path d="M2560 853.45L1408.24 1440L1391.92 1440L2560 396.37000000000006z" fill="rgba(0, 0, 0, .075)"></path><path d="M2560 396.3700000000001L1391.92 1440L611.95 1440L2560 254.28000000000011z" fill="rgba(0, 0, 0, .05)"></path><path d="M2560 254.2800000000002L611.95 1440L286.81000000000006 1440L2560 110.6500000000002z" fill="rgba(0, 0, 0, .025)"></path></g><defs><mask id="SvgjsMask6535"><rect width="2560" height="1440" fill="#ffffff"></rect></mask><radialGradient cx="50%" cy="50%" r="1468.6" gradientUnits="userSpaceOnUse" id="SvgjsRadialGradient6536"><stop stop-color="rgba(127, 15, 93, 1)" offset="0"></stop><stop stop-color="rgba(0, 0, 0, 1)" offset="1"></stop></radialGradient></defs></svg>